<?xml version="1.0" encoding="UTF-8" standalone="no"?>
<!-- Generator: Adobe Illustrator 18.1.1, SVG Export Plug-In . SVG Version: 6.00 Build 0)  -->

<svg
   xmlns:dc="http://purl.org/dc/elements/1.1/"
   xmlns:cc="http://creativecommons.org/ns#"
   xmlns:rdf="http://www.w3.org/1999/02/22-rdf-syntax-ns#"
   xmlns:svg="http://www.w3.org/2000/svg"
   xmlns="http://www.w3.org/2000/svg"
   xmlns:sodipodi="http://sodipodi.sourceforge.net/DTD/sodipodi-0.dtd"
   xmlns:inkscape="http://www.inkscape.org/namespaces/inkscape"
   version="1.1"
   id="Capa_1"
   x="0px"
   y="0px"
   viewBox="0 0 58.32 58.32"
   style="enable-background:new 0 0 58.32 58.32;"
   xml:space="preserve"
   sodipodi:docname="player_red.svg"
   inkscape:version="0.92.4 (5da689c313, 2019-01-14)"><metadata
   id="metadata47"><rdf:RDF><cc:Work
       rdf:about=""><dc:format>image/svg+xml</dc:format><dc:type
         rdf:resource="http://purl.org/dc/dcmitype/StillImage" /><dc:title></dc:title></cc:Work></rdf:RDF></metadata><defs
   id="defs45" /><sodipodi:namedview
   pagecolor="#ffffff"
   bordercolor="#666666"
   borderopacity="1"
   objecttolerance="10"
   gridtolerance="10"
   guidetolerance="10"
   inkscape:pageopacity="0"
   inkscape:pageshadow="2"
   inkscape:window-width="1440"
   inkscape:window-height="837"
   id="namedview43"
   showgrid="false"
   inkscape:zoom="4.0466393"
   inkscape:cx="-5.3130508"
   inkscape:cy="29.16"
   inkscape:window-x="-8"
   inkscape:window-y="-8"
   inkscape:window-maximized="1"
   inkscape:current-layer="g10" />
<g
   id="g10">
	<g
   id="g8"
   style="fill:#800000">
		<path
   style="fill:#800000"
   d="M33.47,36.538c0.102-0.43,0.172-0.885,0.193-1.372c0.404-8.843-4.428-16.084-11.671-20.739    c-4.308-2.77-8.394,0.25-9.432,4.101c-2.67-2.125-7.294,1.055-5.214,4.548c0.076,0.127,0.154,0.255,0.232,0.383    c-2.088-0.008-8.742-0.029-6.879,0.002c2.202,0.038,7.486,5.964,7.486,5.964v-5c1.623,2.482,3.698,4.804,6.786,5.155    c1.408,0.161,2.571-0.275,3.527-1.038c1.207,1.477,1.822,3.135,1.942,5.125c-1.057-0.016-2.117,0.027-3.187,0.152    c-3.691,0.435-5.969,1.248-6.715,5.109c-1.122,5.824,1.907,10.078,5.174,14.53c2.658,3.621,8.776,0.112,6.083-3.56    c-2.202-3-4.417-5.465-4.326-8.951c2.152-0.327,4.292-0.239,6.477-0.03c1.069,0.46,2.275,0.646,3.469,0.553    c1.781,5.955,5.163,11.259,9.543,15.783c3.166,3.271,8.143-1.722,4.982-4.979C37.597,47.782,34.688,42.585,33.47,36.538z"
   id="path2" />
		<path
   style="fill:#800000"
   d="M6.805,7.951c0.009,0.1,0.012,0.2,0.026,0.301c0.449,3.26,3.454,5.539,6.712,5.09    c3.26-0.448,5.536-3.452,5.09-6.712c-0.092-0.678-0.3-1.309-0.594-1.885c0.201-0.097,0.292-0.328,0.224-0.809l-0.194-1.423    c-0.22-1.591-1.687-2.705-3.276-2.485l-6.342,0.87c-1.595,0.22-2.706,1.687-2.487,3.28l0.155,1.151    C5.23,6.038,4.479,6.934,4.642,7.884C4.784,8.727,5.718,8.518,6.805,7.951z"
   id="path4" />
		<path
   style="fill:#800000"
   d="M22.894,13.399c0,0,14.28,7.656,12.593,18.94c-3.698,9.408,12.449,19.098,21.229-2.6    C56.715,29.739,67.895,0.001,22.894,13.399z M47.071,31.105v1.814h-1.93v-1.707c-0.894-0.084-1.783-0.379-2.358-0.787    l-0.271-0.195l0.7-1.958l0.47,0.313c0.609,0.407,1.396,0.642,2.15,0.642c0.923,0,1.539-0.479,1.539-1.19    c0-0.48-0.191-1.001-1.604-1.573c-1.492-0.584-3.021-1.435-3.021-3.287c0-1.489,0.979-2.65,2.514-3.037v-1.763h1.913v1.643    c0.731,0.074,1.37,0.277,1.945,0.614l0.321,0.19l-0.73,1.928l-0.45-0.256c-0.264-0.151-0.887-0.508-1.876-0.508    c-0.975,0-1.322,0.512-1.322,0.991c0,0.519,0.258,0.855,1.791,1.491c1.326,0.54,2.853,1.422,2.853,3.451    C49.702,29.458,48.659,30.7,47.071,31.105z"
   id="path6" />
	</g>
</g>
<g
   id="g12">
</g>
<g
   id="g14">
</g>
<g
   id="g16">
</g>
<g
   id="g18">
</g>
<g
   id="g20">
</g>
<g
   id="g22">
</g>
<g
   id="g24">
</g>
<g
   id="g26">
</g>
<g
   id="g28">
</g>
<g
   id="g30">
</g>
<g
   id="g32">
</g>
<g
   id="g34">
</g>
<g
   id="g36">
</g>
<g
   id="g38">
</g>
<g
   id="g40">
</g>
</svg>